<?xml version="1.0" encoding="UTF-8" standalone="no"?>
<!DOCTYPE svg PUBLIC "-//W3C//DTD SVG 1.1//EN"
 "http://www.w3.org/Graphics/SVG/1.1/DTD/svg11.dtd">
<!-- Generated by graphviz version 12.2.1 (20241206.2353)
 -->
<!-- Title: AWS Auto&#45;Scale Stack Architecture Pages: 1 -->
<svg width="2090pt" height="1662pt"
 viewBox="0.00 0.00 2090.15 1662.35" xmlns="http://www.w3.org/2000/svg" xmlns:xlink="http://www.w3.org/1999/xlink">
<g id="graph0" class="graph" transform="scale(1 1) rotate(0) translate(57.6 1604.75)">
<title>AWS Auto&#45;Scale Stack Architecture</title>
<polygon fill="white" stroke="none" points="-57.6,57.6 -57.6,-1604.75 2032.55,-1604.75 2032.55,57.6 -57.6,57.6"/>
<text text-anchor="middle" x="197" y="-1520.35" font-family="Helvetica,sans-Serif" font-size="24.00" fill="#2d3436">AWS Auto&#45;Scale Stack Architecture</text>
<g id="clust1" class="cluster">
<title>cluster_AWS us&#45;east&#45;1
VPC 10.0.0.0/16</title>
<path fill="#e5f5fd" stroke="#aeb6be" d="M607.65,-144.4C607.65,-144.4 1954.95,-144.4 1954.95,-144.4 1960.95,-144.4 1966.95,-150.4 1966.95,-156.4 1966.95,-156.4 1966.95,-1494.4 1966.95,-1494.4 1966.95,-1500.4 1960.95,-1506.4 1954.95,-1506.4 1954.95,-1506.4 607.65,-1506.4 607.65,-1506.4 601.65,-1506.4 595.65,-1500.4 595.65,-1494.4 595.65,-1494.4 595.65,-156.4 595.65,-156.4 595.65,-150.4 601.65,-144.4 607.65,-144.4"/>
<text text-anchor="middle" x="647.53" y="-1491" font-family="Sans-Serif" font-size="12.00" fill="#2d3436">AWS us&#45;east&#45;1</text>
<text text-anchor="middle" x="647.53" y="-1478.25" font-family="Sans-Serif" font-size="12.00" fill="#2d3436">VPC 10.0.0.0/16</text>
</g>
<g id="clust2" class="cluster">
<title>cluster_Public Subnets
10.0.1.0/24 • 10.0.2.0/24</title>
<path fill="#ebf3e7" stroke="#aeb6be" d="M867.95,-376.4C867.95,-376.4 1243.05,-376.4 1243.05,-376.4 1249.05,-376.4 1255.05,-382.4 1255.05,-388.4 1255.05,-388.4 1255.05,-787.4 1255.05,-787.4 1255.05,-793.4 1249.05,-799.4 1243.05,-799.4 1243.05,-799.4 867.95,-799.4 867.95,-799.4 861.95,-799.4 855.95,-793.4 855.95,-787.4 855.95,-787.4 855.95,-388.4 855.95,-388.4 855.95,-382.4 861.95,-376.4 867.95,-376.4"/>
<text text-anchor="middle" x="928.45" y="-784" font-family="Sans-Serif" font-size="12.00" fill="#2d3436">Public Subnets</text>
<text text-anchor="middle" x="928.45" y="-771.25" font-family="Sans-Serif" font-size="12.00" fill="#2d3436">10.0.1.0/24 • 10.0.2.0/24</text>
</g>
<g id="clust3" class="cluster">
<title>cluster_Private Subnets
10.0.3.0/24 • 10.0.4.0/24</title>
<path fill="#ebf3e7" stroke="#aeb6be" d="M1431.8,-625.4C1431.8,-625.4 1946.95,-625.4 1946.95,-625.4 1952.95,-625.4 1958.95,-631.4 1958.95,-637.4 1958.95,-637.4 1958.95,-1008.4 1958.95,-1008.4 1958.95,-1014.4 1952.95,-1020.4 1946.95,-1020.4 1946.95,-1020.4 1431.8,-1020.4 1431.8,-1020.4 1425.8,-1020.4 1419.8,-1014.4 1419.8,-1008.4 1419.8,-1008.4 1419.8,-637.4 1419.8,-637.4 1419.8,-631.4 1425.8,-625.4 1431.8,-625.4"/>
<text text-anchor="middle" x="1492.3" y="-1005" font-family="Sans-Serif" font-size="12.00" fill="#2d3436">Private Subnets</text>
<text text-anchor="middle" x="1492.3" y="-992.25" font-family="Sans-Serif" font-size="12.00" fill="#2d3436">10.0.3.0/24 • 10.0.4.0/24</text>
</g>
<g id="clust4" class="cluster">
<title>cluster_Operations &amp; State</title>
<path fill="#ebf3e7" stroke="#aeb6be" d="M615.65,-845.4C615.65,-845.4 1243.05,-845.4 1243.05,-845.4 1249.05,-845.4 1255.05,-851.4 1255.05,-857.4 1255.05,-857.4 1255.05,-1452.4 1255.05,-1452.4 1255.05,-1458.4 1249.05,-1464.4 1243.05,-1464.4 1243.05,-1464.4 615.65,-1464.4 615.65,-1464.4 609.65,-1464.4 603.65,-1458.4 603.65,-1452.4 603.65,-1452.4 603.65,-857.4 603.65,-857.4 603.65,-851.4 609.65,-845.4 615.65,-845.4"/>
<text text-anchor="middle" x="661.9" y="-1449" font-family="Sans-Serif" font-size="12.00" fill="#2d3436">Operations &amp; State</text>
</g>
<!-- c5b419fc58124db0acd9bd8c4c6d5277 -->
<g id="node1" class="node">
<title>c5b419fc58124db0acd9bd8c4c6d5277</title>
<image xlink:href="/Users/amoghjay/Desktop/Capstone_PRJ/aws-autoscale-stack/.venv-diagrams/lib/python3.14/site-packages/resources/onprem/client/user.png" width="100.8px" height="100.8px" preserveAspectRatio="xMinYMin meet" x="9.9476e-14" y="-799.8"/>
<text text-anchor="middle" x="50.4" y="-682.3" font-family="Helvetica,sans-Serif" font-size="16.00" fill="#2d3436">End Users</text>
</g>
<!-- 61f875b22f8c44b7a1dd9af28764ed6b -->
<g id="node2" class="node">
<title>61f875b22f8c44b7a1dd9af28764ed6b</title>
<image xlink:href="/Users/amoghjay/Desktop/Capstone_PRJ/aws-autoscale-stack/.venv-diagrams/lib/python3.14/site-packages/resources/onprem/container/docker.png" width="100.8px" height="100.8px" preserveAspectRatio="xMinYMin meet" x="173.8" y="-1290.8"/>
<text text-anchor="middle" x="224.2" y="-1175.4" font-family="Helvetica,sans-Serif" font-size="16.00" fill="#2d3436">Docker&#45;based</text>
<text text-anchor="middle" x="224.2" y="-1158.9" font-family="Helvetica,sans-Serif" font-size="16.00" fill="#2d3436">Ansible control node</text>
</g>
<!-- c5b419fc58124db0acd9bd8c4c6d5277&#45;&gt;61f875b22f8c44b7a1dd9af28764ed6b -->
<!-- 859704d9e3844c6eb45ac4ab2aa145d8 -->
<g id="node5" class="node">
<title>859704d9e3844c6eb45ac4ab2aa145d8</title>
<image xlink:href="/Users/amoghjay/Desktop/Capstone_PRJ/aws-autoscale-stack/.venv-diagrams/lib/python3.14/site-packages/resources/aws/network/internet-gateway.png" width="100.8px" height="100.8px" preserveAspectRatio="xMinYMin meet" x="611.65" y="-725.8"/>
<text text-anchor="middle" x="662.05" y="-610.4" font-family="Helvetica,sans-Serif" font-size="16.00" fill="#2d3436">Internet</text>
<text text-anchor="middle" x="662.05" y="-593.9" font-family="Helvetica,sans-Serif" font-size="16.00" fill="#2d3436">Gateway</text>
</g>
<!-- c5b419fc58124db0acd9bd8c4c6d5277&#45;&gt;859704d9e3844c6eb45ac4ab2aa145d8 -->
<g id="edge1" class="edge">
<title>c5b419fc58124db0acd9bd8c4c6d5277&#45;&gt;859704d9e3844c6eb45ac4ab2aa145d8</title>
<path fill="none" stroke="#7b8894" d="M100.77,-743.41C211.72,-729.94 480.43,-697.32 600.88,-682.7"/>
<polygon fill="#7b8894" stroke="#7b8894" points="601.06,-686.21 610.56,-681.53 600.21,-679.26 601.06,-686.21"/>
<text text-anchor="middle" x="328.23" y="-719.08" font-family="Sans-Serif" font-size="13.00" fill="#2d3436">HTTP</text>
</g>
<!-- f80d6ead900542b7a8730801ba5fc88f -->
<g id="node3" class="node">
<title>f80d6ead900542b7a8730801ba5fc88f</title>
<image xlink:href="/Users/amoghjay/Desktop/Capstone_PRJ/aws-autoscale-stack/.venv-diagrams/lib/python3.14/site-packages/resources/onprem/iac/ansible.png" width="100.8px" height="100.8px" preserveAspectRatio="xMinYMin meet" x="381.85" y="-1088.8"/>
<text text-anchor="middle" x="432.25" y="-973.4" font-family="Helvetica,sans-Serif" font-size="16.00" fill="#2d3436">Ansible</text>
<text text-anchor="middle" x="432.25" y="-956.9" font-family="Helvetica,sans-Serif" font-size="16.00" fill="#2d3436">via SSM</text>
</g>
<!-- 61f875b22f8c44b7a1dd9af28764ed6b&#45;&gt;f80d6ead900542b7a8730801ba5fc88f -->
<g id="edge15" class="edge">
<title>61f875b22f8c44b7a1dd9af28764ed6b&#45;&gt;f80d6ead900542b7a8730801ba5fc88f</title>
<path fill="none" stroke="#7b8894" d="M274.55,-1192.02C304.39,-1162.77 342.56,-1125.35 373.76,-1094.76"/>
<polygon fill="#7b8894" stroke="#7b8894" points="376.17,-1097.3 380.86,-1087.8 371.27,-1092.3 376.17,-1097.3"/>
</g>
<!-- 20c154c371844d2fad06fc7e448e9b83 -->
<g id="node17" class="node">
<title>20c154c371844d2fad06fc7e448e9b83</title>
<image xlink:href="/Users/amoghjay/Desktop/Capstone_PRJ/aws-autoscale-stack/.venv-diagrams/lib/python3.14/site-packages/resources/aws/storage/simple-storage-service-s3.png" width="100.8px" height="100.8px" preserveAspectRatio="xMinYMin meet" x="611.65" y="-1417.8"/>
<text text-anchor="middle" x="662.05" y="-1300.3" font-family="Helvetica,sans-Serif" font-size="16.00" fill="#2d3436">S3 remote state</text>
</g>
<!-- 61f875b22f8c44b7a1dd9af28764ed6b&#45;&gt;20c154c371844d2fad06fc7e448e9b83 -->
<g id="edge21" class="edge">
<title>61f875b22f8c44b7a1dd9af28764ed6b&#45;&gt;20c154c371844d2fad06fc7e448e9b83</title>
<path fill="none" stroke="#7b8894" stroke-dasharray="5,2" d="M274.35,-1254.72C354.65,-1278.12 513.72,-1324.47 600.73,-1349.82"/>
<polygon fill="#7b8894" stroke="#7b8894" points="599.71,-1353.17 610.29,-1352.61 601.67,-1346.45 599.71,-1353.17"/>
<text text-anchor="middle" x="432.25" y="-1315.59" font-family="Sans-Serif" font-size="13.00" fill="#2d3436">Terraform</text>
</g>
<!-- 22790ba0eb0349ecb5c99954c7fc8656 -->
<g id="node18" class="node">
<title>22790ba0eb0349ecb5c99954c7fc8656</title>
<image xlink:href="/Users/amoghjay/Desktop/Capstone_PRJ/aws-autoscale-stack/.venv-diagrams/lib/python3.14/site-packages/resources/aws/database/dynamodb.png" width="100.8px" height="100.8px" preserveAspectRatio="xMinYMin meet" x="863.95" y="-1417.8"/>
<text text-anchor="middle" x="914.35" y="-1300.3" font-family="Helvetica,sans-Serif" font-size="16.00" fill="#2d3436">DynamoDB lock</text>
</g>
<!-- 61f875b22f8c44b7a1dd9af28764ed6b&#45;&gt;22790ba0eb0349ecb5c99954c7fc8656 -->
<g id="edge22" class="edge">
<title>61f875b22f8c44b7a1dd9af28764ed6b&#45;&gt;22790ba0eb0349ecb5c99954c7fc8656</title>
<path fill="none" stroke="#7b8894" stroke-dasharray="5,2" d="M274.33,-1294.4C285.66,-1305.36 298.08,-1316.3 310.6,-1325.4 425.77,-1409.05 457.28,-1438.03 595.65,-1471.4 646.11,-1483.57 662.01,-1483.68 712.45,-1471.4 763.46,-1458.98 815.97,-1431.17 854.51,-1407.44"/>
<polygon fill="#7b8894" stroke="#7b8894" points="856.1,-1410.58 862.72,-1402.31 852.38,-1404.64 856.1,-1410.58"/>
<text text-anchor="middle" x="547.15" y="-1467.19" font-family="Sans-Serif" font-size="13.00" fill="#2d3436">state lock</text>
</g>
<!-- 8eb95f8cbc4d4789a02c31af86fa6a1d -->
<g id="node13" class="node">
<title>8eb95f8cbc4d4789a02c31af86fa6a1d</title>
<image xlink:href="/Users/amoghjay/Desktop/Capstone_PRJ/aws-autoscale-stack/.venv-diagrams/lib/python3.14/site-packages/resources/aws/management/systems-manager.png" width="100.8px" height="100.8px" preserveAspectRatio="xMinYMin meet" x="611.65" y="-971.8"/>
<text text-anchor="middle" x="662.05" y="-854.3" font-family="Helvetica,sans-Serif" font-size="16.00" fill="#2d3436">Systems Manager</text>
</g>
<!-- f80d6ead900542b7a8730801ba5fc88f&#45;&gt;8eb95f8cbc4d4789a02c31af86fa6a1d -->
<g id="edge16" class="edge">
<title>f80d6ead900542b7a8730801ba5fc88f&#45;&gt;8eb95f8cbc4d4789a02c31af86fa6a1d</title>
<path fill="none" stroke="#7b8894" d="M482.4,-1013.16C517.43,-995.17 564.69,-970.89 601.81,-951.83"/>
<polygon fill="#7b8894" stroke="#7b8894" points="603.35,-954.97 610.64,-947.29 600.15,-948.74 603.35,-954.97"/>
<text text-anchor="middle" x="547.15" y="-994.97" font-family="Sans-Serif" font-size="13.00" fill="#2d3436">SSM</text>
</g>
<!-- 2182ca84e099482ebd2b81da9c00ea2f -->
<g id="node4" class="node">
<title>2182ca84e099482ebd2b81da9c00ea2f</title>
<image xlink:href="/Users/amoghjay/Desktop/Capstone_PRJ/aws-autoscale-stack/.venv-diagrams/lib/python3.14/site-packages/resources/onprem/vcs/github.png" width="100.8px" height="100.8px" preserveAspectRatio="xMinYMin meet" x="1146.25" y="-118.8"/>
<text text-anchor="middle" x="1196.65" y="-1.3" font-family="Helvetica,sans-Serif" font-size="16.00" fill="#2d3436">GitHub repo</text>
</g>
<!-- e99da822a0bb49c1bb7b3f882b898dc0 -->
<g id="node9" class="node">
<title>e99da822a0bb49c1bb7b3f882b898dc0</title>
<image xlink:href="/Users/amoghjay/Desktop/Capstone_PRJ/aws-autoscale-stack/.venv-diagrams/lib/python3.14/site-packages/resources/aws/compute/ec2-auto-scaling.png" width="100.8px" height="100.8px" preserveAspectRatio="xMinYMin meet" x="1427.8" y="-855.8"/>
<text text-anchor="middle" x="1478.2" y="-742.5" font-family="Helvetica,sans-Serif" font-size="16.00" fill="#2d3436">ASG</text>
<text text-anchor="middle" x="1478.2" y="-726" font-family="Helvetica,sans-Serif" font-size="16.00" fill="#2d3436">Flask app tier</text>
<text text-anchor="middle" x="1478.2" y="-709.5" font-family="Helvetica,sans-Serif" font-size="16.00" fill="#2d3436">min 2 / max 6</text>
</g>
<!-- 2182ca84e099482ebd2b81da9c00ea2f&#45;&gt;e99da822a0bb49c1bb7b3f882b898dc0 -->
<g id="edge19" class="edge">
<title>2182ca84e099482ebd2b81da9c00ea2f&#45;&gt;e99da822a0bb49c1bb7b3f882b898dc0</title>
<path fill="none" stroke="#7b8894" d="M1246.65,-85.67C1292.13,-104.42 1357.78,-138.97 1391.8,-191.9 1444.17,-273.37 1465.12,-543.9 1472.94,-697.12"/>
<polygon fill="#7b8894" stroke="#7b8894" points="1469.43,-697.07 1473.43,-706.89 1476.43,-696.72 1469.43,-697.07"/>
<text text-anchor="middle" x="1337.43" y="-193.05" font-family="Sans-Serif" font-size="13.00" fill="#2d3436">git clone at launch</text>
</g>
<!-- e91d9ec355964cc783307ededb1b3c3f -->
<g id="node6" class="node">
<title>e91d9ec355964cc783307ededb1b3c3f</title>
<image xlink:href="/Users/amoghjay/Desktop/Capstone_PRJ/aws-autoscale-stack/.venv-diagrams/lib/python3.14/site-packages/resources/aws/compute/ec2.png" width="100.8px" height="100.8px" preserveAspectRatio="xMinYMin meet" x="863.95" y="-725.8"/>
<text text-anchor="middle" x="914.35" y="-610.4" font-family="Helvetica,sans-Serif" font-size="16.00" fill="#2d3436">Nginx EC2</text>
<text text-anchor="middle" x="914.35" y="-593.9" font-family="Helvetica,sans-Serif" font-size="16.00" fill="#2d3436">public frontend</text>
</g>
<!-- 859704d9e3844c6eb45ac4ab2aa145d8&#45;&gt;e91d9ec355964cc783307ededb1b3c3f -->
<g id="edge2" class="edge">
<title>859704d9e3844c6eb45ac4ab2aa145d8&#45;&gt;e91d9ec355964cc783307ededb1b3c3f</title>
<path fill="none" stroke="#7b8894" d="M712.2,-675.4C752.5,-675.4 809.72,-675.4 852.83,-675.4"/>
<polygon fill="#7b8894" stroke="#7b8894" points="852.8,-678.9 862.8,-675.4 852.8,-671.9 852.8,-678.9"/>
<text text-anchor="middle" x="788.2" y="-676.55" font-family="Sans-Serif" font-size="13.00" fill="#2d3436">:80 / :443</text>
</g>
<!-- 5276a988153240f39a43fa4803143629 -->
<g id="node7" class="node">
<title>5276a988153240f39a43fa4803143629</title>
<image xlink:href="/Users/amoghjay/Desktop/Capstone_PRJ/aws-autoscale-stack/.venv-diagrams/lib/python3.14/site-packages/resources/aws/network/elb-application-load-balancer.png" width="100.8px" height="100.8px" preserveAspectRatio="xMinYMin meet" x="1146.25" y="-725.8"/>
<text text-anchor="middle" x="1196.65" y="-610.4" font-family="Helvetica,sans-Serif" font-size="16.00" fill="#2d3436">ALB</text>
<text text-anchor="middle" x="1196.65" y="-593.9" font-family="Helvetica,sans-Serif" font-size="16.00" fill="#2d3436">/api &#45;&gt; Flask</text>
</g>
<!-- 859704d9e3844c6eb45ac4ab2aa145d8&#45;&gt;5276a988153240f39a43fa4803143629 -->
<g id="edge3" class="edge">
<title>859704d9e3844c6eb45ac4ab2aa145d8&#45;&gt;5276a988153240f39a43fa4803143629</title>
<path fill="none" stroke="#7b8894" d="M683.86,-592.67C709.35,-510.83 761.3,-390.06 855.95,-334.9 985.5,-259.4 1100.45,-457.37 1157.54,-582.3"/>
<polygon fill="#7b8894" stroke="#7b8894" points="1154.29,-583.6 1161.59,-591.27 1160.67,-580.72 1154.29,-583.6"/>
<text text-anchor="middle" x="914.35" y="-336.05" font-family="Sans-Serif" font-size="13.00" fill="#2d3436">:80</text>
</g>
<!-- e91d9ec355964cc783307ededb1b3c3f&#45;&gt;5276a988153240f39a43fa4803143629 -->
<g id="edge4" class="edge">
<title>e91d9ec355964cc783307ededb1b3c3f&#45;&gt;5276a988153240f39a43fa4803143629</title>
<path fill="none" stroke="#7b8894" d="M964.5,-675.4C1012.08,-675.4 1084.33,-675.4 1135.37,-675.4"/>
<polygon fill="#7b8894" stroke="#7b8894" points="1135.05,-678.9 1145.05,-675.4 1135.05,-671.9 1135.05,-678.9"/>
<text text-anchor="middle" x="1055.5" y="-676.55" font-family="Sans-Serif" font-size="13.00" fill="#2d3436">/api/* proxy</text>
</g>
<!-- 5276a988153240f39a43fa4803143629&#45;&gt;e99da822a0bb49c1bb7b3f882b898dc0 -->
<g id="edge5" class="edge">
<title>5276a988153240f39a43fa4803143629&#45;&gt;e99da822a0bb49c1bb7b3f882b898dc0</title>
<path fill="none" stroke="#7b8894" d="M1246.98,-698.34C1294.64,-720.5 1366.89,-754.1 1417.71,-777.73"/>
<polygon fill="#7b8894" stroke="#7b8894" points="1415.97,-780.79 1426.52,-781.83 1418.93,-774.44 1415.97,-780.79"/>
<text text-anchor="middle" x="1337.43" y="-764.5" font-family="Sans-Serif" font-size="13.00" fill="#2d3436">:5000</text>
</g>
<!-- 4ad5dd40669344069d286a587682952e -->
<g id="node8" class="node">
<title>4ad5dd40669344069d286a587682952e</title>
<image xlink:href="/Users/amoghjay/Desktop/Capstone_PRJ/aws-autoscale-stack/.venv-diagrams/lib/python3.14/site-packages/resources/aws/network/nat-gateway.png" width="100.8px" height="100.8px" preserveAspectRatio="xMinYMin meet" x="863.95" y="-502.8"/>
<text text-anchor="middle" x="914.35" y="-385.3" font-family="Helvetica,sans-Serif" font-size="16.00" fill="#2d3436">NAT Gateway</text>
</g>
<!-- 4ad5dd40669344069d286a587682952e&#45;&gt;2182ca84e099482ebd2b81da9c00ea2f -->
<g id="edge20" class="edge">
<title>4ad5dd40669344069d286a587682952e&#45;&gt;2182ca84e099482ebd2b81da9c00ea2f</title>
<path fill="none" stroke="#7b8894" stroke-dasharray="5,2" d="M963.19,-384.21C963.74,-382.94 964.26,-381.67 964.75,-380.4 1006.81,-271.82 923.73,-208.23 1000.75,-120.9 1034.05,-83.14 1091.35,-71.23 1135.23,-68.04"/>
<polygon fill="#7b8894" stroke="#7b8894" points="1135.36,-71.54 1145.14,-67.47 1134.95,-64.55 1135.36,-71.54"/>
<text text-anchor="middle" x="1055.5" y="-122.05" font-family="Sans-Serif" font-size="13.00" fill="#2d3436">outbound only</text>
</g>
<!-- eaa74cdd03464406ab9a90274b7aa043 -->
<g id="node10" class="node">
<title>eaa74cdd03464406ab9a90274b7aa043</title>
<image xlink:href="/Users/amoghjay/Desktop/Capstone_PRJ/aws-autoscale-stack/.venv-diagrams/lib/python3.14/site-packages/resources/aws/compute/ec2.png" width="100.8px" height="100.8px" preserveAspectRatio="xMinYMin meet" x="1601.6" y="-751.8"/>
<text text-anchor="middle" x="1652" y="-634.3" font-family="Helvetica,sans-Serif" font-size="16.00" fill="#2d3436">App instance A</text>
</g>
<!-- e99da822a0bb49c1bb7b3f882b898dc0&#45;&gt;eaa74cdd03464406ab9a90274b7aa043 -->
<g id="edge6" class="edge">
<title>e99da822a0bb49c1bb7b3f882b898dc0&#45;&gt;eaa74cdd03464406ab9a90274b7aa043</title>
<path fill="none" stroke="#7b8894" d="M1528.43,-775.6C1548.29,-763.58 1571.37,-749.61 1592.11,-737.05"/>
<polygon fill="#7b8894" stroke="#7b8894" points="1593.72,-740.16 1600.47,-731.99 1590.1,-734.17 1593.72,-740.16"/>
</g>
<!-- 22507dd7bd864281b237e419291600fe -->
<g id="node11" class="node">
<title>22507dd7bd864281b237e419291600fe</title>
<image xlink:href="/Users/amoghjay/Desktop/Capstone_PRJ/aws-autoscale-stack/.venv-diagrams/lib/python3.14/site-packages/resources/aws/compute/ec2.png" width="100.8px" height="100.8px" preserveAspectRatio="xMinYMin meet" x="1601.6" y="-960.8"/>
<text text-anchor="middle" x="1652" y="-843.3" font-family="Helvetica,sans-Serif" font-size="16.00" fill="#2d3436">App instance B</text>
</g>
<!-- e99da822a0bb49c1bb7b3f882b898dc0&#45;&gt;22507dd7bd864281b237e419291600fe -->
<g id="edge7" class="edge">
<title>e99da822a0bb49c1bb7b3f882b898dc0&#45;&gt;22507dd7bd864281b237e419291600fe</title>
<path fill="none" stroke="#7b8894" d="M1528.43,-835.49C1548.29,-847.63 1571.37,-861.73 1592.11,-874.41"/>
<polygon fill="#7b8894" stroke="#7b8894" points="1590.11,-877.29 1600.47,-879.52 1593.76,-871.32 1590.11,-877.29"/>
</g>
<!-- 1a606cb153ea4bf2820e53fabc898bbc -->
<g id="node12" class="node">
<title>1a606cb153ea4bf2820e53fabc898bbc</title>
<image xlink:href="/Users/amoghjay/Desktop/Capstone_PRJ/aws-autoscale-stack/.venv-diagrams/lib/python3.14/site-packages/resources/aws/database/rds.png" width="100.8px" height="100.8px" preserveAspectRatio="xMinYMin meet" x="1850.15" y="-835.8"/>
<text text-anchor="middle" x="1900.55" y="-720.4" font-family="Helvetica,sans-Serif" font-size="16.00" fill="#2d3436">RDS MySQL 8.0</text>
<text text-anchor="middle" x="1900.55" y="-703.9" font-family="Helvetica,sans-Serif" font-size="16.00" fill="#2d3436">appdb</text>
</g>
<!-- eaa74cdd03464406ab9a90274b7aa043&#45;&gt;1a606cb153ea4bf2820e53fabc898bbc -->
<g id="edge8" class="edge">
<title>eaa74cdd03464406ab9a90274b7aa043&#45;&gt;1a606cb153ea4bf2820e53fabc898bbc</title>
<path fill="none" stroke="#7b8894" d="M1702.31,-715.87C1734.36,-725.52 1776.96,-738.8 1814.15,-751.9 1822.49,-754.84 1831.24,-758.08 1839.81,-761.35"/>
<polygon fill="#7b8894" stroke="#7b8894" points="1838.55,-764.62 1849.14,-764.95 1841.07,-758.09 1838.55,-764.62"/>
<text text-anchor="middle" x="1776.28" y="-753.05" font-family="Sans-Serif" font-size="13.00" fill="#2d3436">MySQL 3306</text>
</g>
<!-- 22507dd7bd864281b237e419291600fe&#45;&gt;1a606cb153ea4bf2820e53fabc898bbc -->
<g id="edge9" class="edge">
<title>22507dd7bd864281b237e419291600fe&#45;&gt;1a606cb153ea4bf2820e53fabc898bbc</title>
<path fill="none" stroke="#7b8894" d="M1702.3,-885.4C1742.03,-865.26 1798.02,-836.88 1840.2,-815.49"/>
<polygon fill="#7b8894" stroke="#7b8894" points="1841.65,-818.68 1848.98,-811.04 1838.48,-812.44 1841.65,-818.68"/>
<text text-anchor="middle" x="1776.28" y="-867.55" font-family="Sans-Serif" font-size="13.00" fill="#2d3436">MySQL 3306</text>
</g>
<!-- 8eb95f8cbc4d4789a02c31af86fa6a1d&#45;&gt;e91d9ec355964cc783307ededb1b3c3f -->
<g id="edge17" class="edge">
<title>8eb95f8cbc4d4789a02c31af86fa6a1d&#45;&gt;e91d9ec355964cc783307ededb1b3c3f</title>
<path fill="none" stroke="#7b8894" d="M709.88,-853.29C728.36,-826.57 745.86,-801.58 748.45,-798.9 780.37,-765.87 821.77,-734.9 855.1,-712.24"/>
<polygon fill="#7b8894" stroke="#7b8894" points="856.67,-715.4 863.01,-706.91 852.76,-709.59 856.67,-715.4"/>
<text text-anchor="middle" x="788.2" y="-800.05" font-family="Sans-Serif" font-size="13.00" fill="#2d3436">initial config</text>
</g>
<!-- 8eb95f8cbc4d4789a02c31af86fa6a1d&#45;&gt;e99da822a0bb49c1bb7b3f882b898dc0 -->
<g id="edge18" class="edge">
<title>8eb95f8cbc4d4789a02c31af86fa6a1d&#45;&gt;e99da822a0bb49c1bb7b3f882b898dc0</title>
<path fill="none" stroke="#7b8894" d="M711.05,-853.27C711.54,-851.98 712.01,-850.69 712.45,-849.4 737.12,-776.58 692.69,-211.33 748.45,-158.4 818.17,-92.22 870.59,-139.03 964.75,-158.4 1118.22,-189.97 1161.96,-232.38 1255.05,-358.4 1333.71,-464.89 1397.6,-603.47 1436.34,-697.92"/>
<polygon fill="#7b8894" stroke="#7b8894" points="1433,-699.01 1440.02,-706.95 1439.49,-696.37 1433,-699.01"/>
<text text-anchor="middle" x="1055.5" y="-208.5" font-family="Sans-Serif" font-size="13.00" fill="#2d3436">manual app config</text>
</g>
<!-- 1f1a25663d8f4e20be10960f6690c59a -->
<g id="node14" class="node">
<title>1f1a25663d8f4e20be10960f6690c59a</title>
<image xlink:href="/Users/amoghjay/Desktop/Capstone_PRJ/aws-autoscale-stack/.venv-diagrams/lib/python3.14/site-packages/resources/aws/management/auto-scaling.png" width="100.8px" height="100.8px" preserveAspectRatio="xMinYMin meet" x="611.65" y="-1194.8"/>
<text text-anchor="middle" x="662.05" y="-1079.4" font-family="Helvetica,sans-Serif" font-size="16.00" fill="#2d3436">CloudWatch metrics</text>
<text text-anchor="middle" x="662.05" y="-1062.9" font-family="Helvetica,sans-Serif" font-size="16.00" fill="#2d3436">CPU + instance count</text>
</g>
<!-- 1f1a25663d8f4e20be10960f6690c59a&#45;&gt;e99da822a0bb49c1bb7b3f882b898dc0 -->
<g id="edge12" class="edge">
<title>1f1a25663d8f4e20be10960f6690c59a&#45;&gt;e99da822a0bb49c1bb7b3f882b898dc0</title>
<path fill="none" stroke="#7b8894" stroke-dasharray="5,2" d="M700.11,-1061.74C712.84,-1040.86 728.92,-1020.19 748.45,-1005.4 957.02,-847.4 1282.91,-814.2 1416.74,-807.24"/>
<polygon fill="#7b8894" stroke="#7b8894" points="1416.61,-810.75 1426.43,-806.77 1416.27,-803.76 1416.61,-810.75"/>
<text text-anchor="middle" x="1055.5" y="-880.94" font-family="Sans-Serif" font-size="13.00" fill="#2d3436">observes</text>
</g>
<!-- e72b043426ca439e98bc32b363d0f885 -->
<g id="node15" class="node">
<title>e72b043426ca439e98bc32b363d0f885</title>
<image xlink:href="/Users/amoghjay/Desktop/Capstone_PRJ/aws-autoscale-stack/.venv-diagrams/lib/python3.14/site-packages/resources/aws/management/cloudwatch-alarm.png" width="100.8px" height="100.8px" preserveAspectRatio="xMinYMin meet" x="863.95" y="-1194.8"/>
<text text-anchor="middle" x="914.35" y="-1079.4" font-family="Helvetica,sans-Serif" font-size="16.00" fill="#2d3436">cpu&#45;high</text>
<text text-anchor="middle" x="914.35" y="-1062.9" font-family="Helvetica,sans-Serif" font-size="16.00" fill="#2d3436">&gt;20% for 2x60s</text>
</g>
<!-- 1f1a25663d8f4e20be10960f6690c59a&#45;&gt;e72b043426ca439e98bc32b363d0f885 -->
<g id="edge13" class="edge">
<title>1f1a25663d8f4e20be10960f6690c59a&#45;&gt;e72b043426ca439e98bc32b363d0f885</title>
<path fill="none" stroke="#7b8894" stroke-dasharray="5,2" d="M712.2,-1144.4C752.5,-1144.4 809.72,-1144.4 852.83,-1144.4"/>
<polygon fill="#7b8894" stroke="#7b8894" points="852.8,-1147.9 862.8,-1144.4 852.8,-1140.9 852.8,-1147.9"/>
<text text-anchor="middle" x="788.2" y="-1145.55" font-family="Sans-Serif" font-size="13.00" fill="#2d3436">drives alarms</text>
</g>
<!-- d309f43261cc41bf8cbedcbb9937a3bd -->
<g id="node16" class="node">
<title>d309f43261cc41bf8cbedcbb9937a3bd</title>
<image xlink:href="/Users/amoghjay/Desktop/Capstone_PRJ/aws-autoscale-stack/.venv-diagrams/lib/python3.14/site-packages/resources/aws/management/cloudwatch-alarm.png" width="100.8px" height="100.8px" preserveAspectRatio="xMinYMin meet" x="1146.25" y="-1061.8"/>
<text text-anchor="middle" x="1196.65" y="-946.4" font-family="Helvetica,sans-Serif" font-size="16.00" fill="#2d3436">cpu&#45;low</text>
<text text-anchor="middle" x="1196.65" y="-929.9" font-family="Helvetica,sans-Serif" font-size="16.00" fill="#2d3436">&lt;10% for 3x60s</text>
</g>
<!-- 1f1a25663d8f4e20be10960f6690c59a&#45;&gt;d309f43261cc41bf8cbedcbb9937a3bd -->
<g id="edge14" class="edge">
<title>1f1a25663d8f4e20be10960f6690c59a&#45;&gt;d309f43261cc41bf8cbedcbb9937a3bd</title>
<path fill="none" stroke="#7b8894" stroke-dasharray="5,2" d="M712.13,-1098.18C748.66,-1067.11 801.44,-1028.86 855.95,-1011.9 950.1,-982.6 1066.17,-991.36 1135.36,-1000.96"/>
<polygon fill="#7b8894" stroke="#7b8894" points="1134.58,-1004.38 1144.97,-1002.35 1135.58,-997.46 1134.58,-1004.38"/>
<text text-anchor="middle" x="914.35" y="-1013.05" font-family="Sans-Serif" font-size="13.00" fill="#2d3436">drives alarms</text>
</g>
<!-- e72b043426ca439e98bc32b363d0f885&#45;&gt;e99da822a0bb49c1bb7b3f882b898dc0 -->
<g id="edge10" class="edge">
<title>e72b043426ca439e98bc32b363d0f885&#45;&gt;e99da822a0bb49c1bb7b3f882b898dc0</title>
<path fill="none" stroke="firebrick" stroke-dasharray="5,2" d="M964.49,-1153.66C1033.11,-1164.16 1159.89,-1174.59 1255.05,-1130.4 1344.78,-1088.74 1404.06,-990.28 1438.64,-912.58"/>
<polygon fill="firebrick" stroke="firebrick" points="1441.75,-914.2 1442.54,-903.63 1435.34,-911.4 1441.75,-914.2"/>
<text text-anchor="middle" x="1196.65" y="-1160.29" font-family="Sans-Serif" font-size="13.00" fill="#2d3436">+1</text>
</g>
<!-- e72b043426ca439e98bc32b363d0f885&#45;&gt;d309f43261cc41bf8cbedcbb9937a3bd -->
<!-- d309f43261cc41bf8cbedcbb9937a3bd&#45;&gt;e99da822a0bb49c1bb7b3f882b898dc0 -->
<g id="edge11" class="edge">
<title>d309f43261cc41bf8cbedcbb9937a3bd&#45;&gt;e99da822a0bb49c1bb7b3f882b898dc0</title>
<path fill="none" stroke="steelblue" stroke-dasharray="5,2" d="M1246.95,-977.92C1286.58,-950.7 1343.41,-910.96 1391.8,-874.4 1400.7,-867.68 1409.99,-860.43 1419.03,-853.23"/>
<polygon fill="steelblue" stroke="steelblue" points="1421.16,-856.01 1426.78,-847.03 1416.78,-850.55 1421.16,-856.01"/>
<text text-anchor="middle" x="1337.43" y="-951.28" font-family="Sans-Serif" font-size="13.00" fill="#2d3436">&#45;1</text>
</g>
<!-- 20c154c371844d2fad06fc7e448e9b83&#45;&gt;22790ba0eb0349ecb5c99954c7fc8656 -->
</g>
</svg>
